# xmcd
#
# Track frame offsets:
#	150
#	16531
#	36115
#	56898
#	71983
#	88268
#	103642
#	116063
#	134023
#	148187
#	166375
#	191581
#	206826
#	223315
#	239807
#	253024
#	267142
#	281488
#	296500
#	313375
#
# Disc length: 4382 seconds
#
# Revision: 1
# Processed by: cddbd v1.5.2PL0 Copyright (c) Steve Scherf et al.
# Submitted via: audiograbber 1.83.01
#
DISCID=50111c14
DTITLE=Various Artist - The Essential Country Volume 2 - Disc 1
DYEAR=2007
DGENRE=Country
TTITLE0=Gretchen Wilson - Redneck Woman
TTITLE1=Alan Jackson - Gone Country
TTITLE2=Leann Rimes - Commitment
TTITLE3=Jo Dee Messina - Bye - Bye
TTITLE4=Martina McBride - A Broken Wing
TTITLE5=Brad Paisley - Wrapped Around
TTITLE6=Pam Tillis - When You Walk In The Room
TTITLE7=Troy Cassar-Daley - They Don`t Make `Em Like That Anymore
TTITLE8=Kenny Chesney - How Forever Feels
TTITLE9=Lonestar - Amazed
TTITLE10=Sara Evans - Born To Fly
TTITLE11=Mary Chapin Carpenter - Passionate Kisses
TTITLE12=Tracy Byrd - I`m From The Country
TTITLE13=Vince Gill - Oklahoma Borderline
TTITLE14=Collin Raye - My Kind Of Girl
TTITLE15=Ricky Van Shelton - I`ll Leave This World Loving You
TTITLE16=Rosanne Cash - Tennessee Flat Top Box
TTITLE17=Willie Nelson - Nothing I Can Do About It Now
TTITLE18=Shenandoah - Two Dozen Roses
TTITLE19=Merle Haggard - Twinkle, Twinkle Lucky Star
EXTD=
EXTT0=
EXTT1=
EXTT2=
EXTT3=
EXTT4=
EXTT5=
EXTT6=
EXTT7=
EXTT8=
EXTT9=
EXTT10=
EXTT11=
EXTT12=
EXTT13=
EXTT14=
EXTT15=
EXTT16=
EXTT17=
EXTT18=
EXTT19=
PLAYORDER=
